<svg width="32" height="32" viewBox="0 0 32 32" fill="none" xmlns="http://www.w3.org/2000/svg">
<path fill-rule="evenodd" clip-rule="evenodd" d="M3.5 29.3359C3.5 29.0598 3.72386 28.8359 4 28.8359H28C28.2761 28.8359 28.5 29.0598 28.5 29.3359C28.5 29.6121 28.2761 29.8359 28 29.8359H4C3.72386 29.8359 3.5 29.6121 3.5 29.3359Z" fill="#4EF09D"/>
<path d="M7.46663 11.1758H5.33333C4.6 11.1758 4 11.7758 4 12.5091V24.0024C4 24.7358 4.6 25.3358 5.33333 25.3358H7.46663C8.19997 25.3358 8.79997 24.7358 8.79997 24.0024V12.5091C8.79997 11.7758 8.19997 11.1758 7.46663 11.1758Z" fill="#4EF09D"/>
<path d="M17.0682 6.92188H14.9349C14.2016 6.92188 13.6016 7.52188 13.6016 8.25521V24.0019C13.6016 24.7352 14.2016 25.3352 14.9349 25.3352H17.0682C17.8015 25.3352 18.4015 24.7352 18.4015 24.0019V8.25521C18.4015 7.52188 17.8015 6.92188 17.0682 6.92188Z" fill="#4EF09D"/>
<path d="M26.6659 2.66797H24.5326C23.7992 2.66797 23.1992 3.26797 23.1992 4.0013V24.0013C23.1992 24.7346 23.7992 25.3346 24.5326 25.3346H26.6659C27.3992 25.3346 27.9992 24.7346 27.9992 24.0013V4.0013C27.9992 3.26797 27.3992 2.66797 26.6659 2.66797Z" fill="#4EF09D"/>
</svg>
